<svg xmlns="http://www.w3.org/2000/svg" width="500" height="500" style="shape-rendering:geometricPrecision;text-rendering:geometricPrecision;image-rendering:optimizeQuality;fill-rule:evenodd;clip-rule:evenodd"><path fill="#0486f0" d="M135.5.5v-1h236c.667 1.333 1.333 1.333 2 0h2c4.007.597 8.173 1.93 12.5 4 1.343-.713 2.676-.38 4 1l1-1c1.079 1.894 2.413 2.227 4 1l5 3c2.316-.867 4.316-.2 6 2l1-1c5.277 2.607 9.944 5.274 14 8l1-1c2.071.864 3.738 2.197 5 4l1-1a18.117 18.117 0 0 1 5.5 4.5 69.61 69.61 0 0 1-10.5 7.5c-1.016-1.134-1.683-.8-2 1-1.016-1.134-1.683-.8-2 1-1.016-1.134-1.683-.8-2 1l-1-1c-5.704 4.35-11.537 7.683-17.5 10-2.645-.342-5.145-1.675-7.5-4-1.016 1.134-1.683.8-2-1-1.587 1.227-2.921.894-4-1l-1 1a169.592 169.592 0 0 0-11-4c-.414.457-.914.79-1.5 1-2.351-1.729-5.018-2.396-8-2l-6-1.5a4485.141 4485.141 0 0 1-110-2c-1.054-1.388-1.22-2.888-.5-4.5.483.948.649 1.948.5 3h3v-3c2.252-.833 4.419-.833 6.5 0a4.458 4.458 0 0 0 1.5-2 19.514 19.514 0 0 0-7-3c-1.12 1.333-2.453 1.833-4 1.5 1.333-.667 1.333-1.333 0-2 1.801-.317 2.134-.984 1-2 3.797.196 7.131-.637 10-2.5-3.385-2.432-7.051-3.098-11-2-1.299-.59-2.132-1.59-2.5-3-1.682 2.054-3.349 1.72-5-1-1.471 2.402-2.971 2.236-4.5-.5l1-1c-3.727-1.268-6.227-.102-7.5 3.5-1-2.667-2-2.667-3 0-1.395-.93-2.895-.93-4.5 0l-2-.5c3.349-.09 3.849-1.256 1.5-3.5-6.414 1.315-12.914.648-19.5-2-2.576 1.383-2.242 2.217 1 2.5l-2.5.5c-1.619-.877-2.785-1.877-3.5-3-1.853.689-3.019 2.022-3.5 4-1.047-2.94-3.214-4.274-6.5-4l-5 .5 7 1L180 7.5c-1.721-3.966-3.388-3.966-5 0a4.934 4.934 0 0 1-.5-3c-9.929-.474-18.929-.641-27-.5a20.476 20.476 0 0 1 3.5-2.5c1.264.14 2.431.14 3.5 0a91.123 91.123 0 0 0-19-1z" style="opacity:1"/><path fill="#1b7eee" d="M127.5-.5h2c.333 1.333.667 1.333 1 0h4c0 .667.333 1 1 1a91.123 91.123 0 0 1 19 1c-1.069.14-2.236.14-3.5 0a20.476 20.476 0 0 0-3.5 2.5c8.071-.141 17.071.026 27 .5a4.934 4.934 0 0 0 .5 3c1.612-3.966 3.279-3.966 5 0L190.5 6l-7-1 5-.5c3.286-.274 5.453 1.06 6.5 4 .481-1.978 1.647-3.311 3.5-4 .715 1.123 1.881 2.123 3.5 3l2.5-.5c-3.242-.283-3.576-1.117-1-2.5 6.586 2.648 13.086 3.315 19.5 2 2.349 2.244 1.849 3.41-1.5 3.5l2 .5c1.605-.93 3.105-.93 4.5 0 1-2.667 2-2.667 3 0 1.273-3.602 3.773-4.768 7.5-3.5l-1 1c1.529 2.736 3.029 2.902 4.5.5 1.651 2.72 3.318 3.054 5 1 .368 1.41 1.201 2.41 2.5 3 3.949-1.098 7.615-.432 11 2-2.869 1.863-6.203 2.696-10 2.5 1.134 1.016.801 1.683-1 2 1.333.667 1.333 1.333 0 2 1.547.333 2.88-.167 4-1.5a19.514 19.514 0 0 1 7 3 4.458 4.458 0 0 1-1.5 2c-2.081-.833-4.248-.833-6.5 0v3h-3a4.934 4.934 0 0 0-.5-3c-.72 1.612-.554 3.112.5 4.5a4485.141 4485.141 0 0 0 110 2l6 1.5a19651.65 19651.65 0 0 0-226.5 0c-6.226 1.17-12.559 2.837-19 5l-1-1c-2.393 1.867-4.893 2.533-7.5 2-8.9 4.019-18.9 9.519-30 16.5-12.132 10.03-22.465 21.03-31 33a116.799 116.799 0 0 1-10 20.5c1.168 1.406.835 2.572-1 3.5l1 1-4 11 1 1a85.797 85.797 0 0 0-3 13.5c-.617.111-1.117.444-1.5 1a1430.684 1430.684 0 0 1-1.5 41 29.806 29.806 0 0 0-5-.5c-1.333.667-1.333 1.333 0 2-3.537 1.143-4.704 3.309-3.5 6.5-1.507 1.005-2.673 2.338-3.5 4-1.383-2.576-2.217-2.242-2.5 1-.454-3.112-2.287-4.778-5.5-5-.925 1.141-1.759 1.141-2.5 0-1.487.753-1.654 1.586-.5 2.5-2.667.667-2.667 1.333 0 2-.455 2.312-1.455 4.312-3 6 .088 1.946.421 3.946 1 6a66.981 66.981 0 0 0-1.5 5.5l-1-3a8707.86 8707.86 0 0 0-.5 132v18c-.817-2.469-1.317-5.135-1.5-8-.667-70-.667-140 0-210 3.218-52.532 28.218-93.532 75-123 1.016 1.134 1.683.8 2-1l1 1a65.57 65.57 0 0 1 11-7l1 1c5.224-3.397 10.391-5.064 15.5-5 6.914-2.416 13.58-4.416 20-6z" style="opacity:1"/><path fill="#0eecca" d="M499.5 15.5v96c-1.945-2.893-3.279-6.227-4-10-2.174-.42-4.174-.42-6 0 .409 3.9-.258 7.734-2 11.5a4.934 4.934 0 0 0 3 .5v5c-3.061-.056-5.228 1.278-6.5 4a9257.118 9257.118 0 0 0-6-7c-.691 2.391-1.691 2.391-3 0 .155-4.363-1.678-5.697-5.5-4l-1-2a48.165 48.165 0 0 0-2.5 5l-1-2c-2.657 1.073-4.823 2.74-6.5 5a29.825 29.825 0 0 1-5-2c.346-1.196.846-1.196 1.5 0 .667-1 .667-2 0-3a20.431 20.431 0 0 1-5.5 1.5c1.154.914.987 1.747-.5 2.5-1.284-1.072-1.617-2.405-1-4-4.16 2.806-6.16 1.806-6-3-1.507 1.035-3.007.868-4.5-.5-1.141-.741-1.141-1.575 0-2.5-1.556-2.201-2.723-2.201-3.5 0a76.716 76.716 0 0 0-3.5-6 68.958 68.958 0 0 1 4-6.5c-1.654-4.38.012-6.714 5-7-2.667-.667-2.667-1.333 0-2-3.745-1.678-7.079-1.512-10 .5-2.446-1.483-2.112-2.65 1-3.5-2.403-.63-4.237.203-5.5 2.5-1.016-1.134-1.683-.8-2 1l-1-3c-3.133 5.726-7.467 8.06-13 7a22.737 22.737 0 0 0-5 2c-.388-.928-1.055-1.595-2-2-3.615 1.745-6.615 1.079-9-2-3.681 2.165-7.848 4.332-12.5 6.5a28.043 28.043 0 0 0-5 1.5 32.367 32.367 0 0 0-4.5-3c-.556 2.095-1.056 2.262-1.5.5 2.022-4.926 5.522-6.76 10.5-5.5a66.95 66.95 0 0 1 5.5-1.5c1.446-2.694 3.446-3.527 6-2.5 2.09-2.079 2.59-4.412 1.5-7A104.297 104.297 0 0 1 417.5 61l-1-1c2.363-.589 3.363-2.089 3-4.5 15.463-9.239 32.296-18.906 50.5-29l1 1a6.544 6.544 0 0 1 3-3h3a9.457 9.457 0 0 1 1.5-2.5c3.664-1.002 6.831-2.836 9.5-5.5l1 1c1.137-.864 2.47-1.864 4-3 2.262.669 4.429 1.002 6.5 1z" style="opacity:1"/><path fill="#0ce1c1" d="M419.5 55.5c.363 2.411-.637 3.911-3 4.5l1 1A104.297 104.297 0 0 0 393 76.5c1.09 2.588.59 4.921-1.5 7-2.554-1.027-4.554-.194-6 2.5a66.95 66.95 0 0 0-5.5 1.5c-4.978-1.26-8.478.574-10.5 5.5.444 1.762.944 1.595 1.5-.5a32.367 32.367 0 0 1 4.5 3 28.043 28.043 0 0 1 5-1.5c4.652-2.168 8.819-4.335 12.5-6.5 2.385 3.079 5.385 3.745 9 2 .945.405 1.612 1.072 2 2a22.737 22.737 0 0 1 5-2c5.533 1.06 9.867-1.274 13-7l1 3c.317-1.8.984-2.134 2-1 1.263-2.297 3.097-3.13 5.5-2.5-3.112.85-3.446 2.017-1 3.5 2.921-2.012 6.255-2.178 10-.5-2.667.667-2.667 1.333 0 2-4.988.286-6.654 2.62-5 7a68.958 68.958 0 0 0-4 6.5 76.716 76.716 0 0 1 3.5 6c.777-2.201 1.944-2.201 3.5 0-1.141.925-1.141 1.759 0 2.5 1.493 1.368 2.993 1.535 4.5.5-.16 4.806 1.84 5.806 6 3-.617 1.595-.284 2.928 1 4 1.487-.753 1.654-1.586.5-2.5a20.431 20.431 0 0 0 5.5-1.5c.667 1 .667 2 0 3-.654-1.196-1.154-1.196-1.5 0a29.825 29.825 0 0 0 5 2c1.677-2.26 3.843-3.927 6.5-5l1 2a48.165 48.165 0 0 1 2.5-5l1 2c3.822-1.697 5.655-.363 5.5 4 1.309 2.391 2.309 2.391 3 0 2.353 2.743 4.353 5.076 6 7 1.272-2.722 3.439-4.056 6.5-4v-5a4.934 4.934 0 0 1-3-.5c1.742-3.766 2.409-7.6 2-11.5 1.826-.42 3.826-.42 6 0 .721 3.773 2.055 7.107 4 10v69c-1.612.952-3.112 1.286-4.5 1a3360.231 3360.231 0 0 1-24.5-15.5c-5.706-5.678-12.039-9.511-19-11.5-.299-1.26-.299-2.427 0-3.5l-5-1a25.61 25.61 0 0 1 5.5-3.5c.414.457.914.791 1.5 1 .44-1.198.773-2.365 1-3.5-2.803.569-5.636.069-8.5-1.5l-1 2-7-2a3.647 3.647 0 0 1-1.5 1c-1.083-.865-1.249-1.865-.5-3a15.256 15.256 0 0 1 4.5-1.5c-2.956-.139-5.789-.972-8.5-2.5-2.148 4.114-3.482 3.781-4-1-.759 2.135-2.259 3.468-4.5 4-1.196-.346-1.196-.846 0-1.5a12.93 12.93 0 0 0-5-.5c-.219 1.175.114 2.175 1 3 .896-1.006 1.562-1.006 2 0-.365 1.402-1.199 2.402-2.5 3-1.416-1.073-2.75-1.073-4 0-2.122-.72-2.622-1.887-1.5-3.5-2.462-1.836-3.962-1.003-4.5 2.5l-1-1c-.368 1.41-1.201 2.41-2.5 3-4.077-.256-7.41-1.256-10-3-.478-2.778.522-4.778 3-6a3.647 3.647 0 0 0-1-1.5c1.304-.804 1.971-1.971 2-3.5-1.077-1.669-1.244-3.335-.5-5-1.049-1.017-2.216-1.184-3.5-.5-1.385 3.639-3.718 5.139-7 4.5 1.809-2.865 3.809-6.198 6-10l-1-2c-12.349-7.102-24.849-14.769-37.5-23-.147-4.226 1.853-7.226 6-9 1.016 1.134 1.683.8 2-1 1.016 1.134 1.683.8 2-1h3a90.278 90.278 0 0 1 13-9c1.016 1.134 1.683.8 2-1h3a53.658 53.658 0 0 1 10-7l1 1c1.003-2.656 2.67-3.656 5-3 3.391-3.185 7.058-5.185 11-6a6.544 6.544 0 0 1 3-3c.97.124 1.803.124 2.5 0z" style="opacity:1"/><path fill="#1787ed" d="M191.5 145.5c28.836-.887 57.836-1.72 87-2.5a79.066 79.066 0 0 0-10-2 25.513 25.513 0 0 0 4-4.5l-1.5-1c-3.408 1.073-6.741 1.073-10 0-1.728 1.694-1.228 2.861 1.5 3.5-4.699-.173-8.699-2.006-12-5.5a28.931 28.931 0 0 1-4 1.5l1 1a9.454 9.454 0 0 0-2.5 1.5c-1.518.443-2.685-.224-3.5-2a26.433 26.433 0 0 0-6.5 3 15.91 15.91 0 0 0-4.5-2.5c3.179-.597 5.513-2.263 7-5 2.733-.758 5.233-.258 7.5 1.5 1.261-.259 2.261-.926 3-2 1.902.886 3.735.553 5.5-1a12.403 12.403 0 0 0-4-2.5 20.64 20.64 0 0 1 6-2c-2.734-.21-5.234-1.044-7.5-2.5-4.295-.097-8.295.569-12 2-2.981-3.269-5.647-2.602-8 2-4.048-3.756-8.381-3.756-13 0-.5-1.167-1.333-2-2.5-2.5 2.667-.667 2.667-1.333 0-2 6.122-.728 6.289-1.228.5-1.5l-4.5 1c1.006.896 1.006 1.562 0 2-1.932-1.02-3.932-1.187-6-.5 1.438.219 2.771.719 4 1.5.119 2.778-1.381 4.778-4.5 6a36.575 36.575 0 0 0-6-5 18.08 18.08 0 0 1-3.5 2c-2.292-.809-4.459-1.143-6.5-1a4.457 4.457 0 0 1-1.5 2l-2-3a66.239 66.239 0 0 1-6.5 7 121.132 121.132 0 0 0-7.5-.5c-2.255-2.389-4.755-3.556-7.5-3.5-1.188 1.063-1.688 2.397-1.5 4-3.491.894-6.824 1.394-10 1.5l1 1-4 3c1.333.667 1.333 1.333 0 2-3.423-.525-5.923.975-7.5 4.5-2.861-.408-3.028.425-.5 2.5l-1.5 1.5c-1.049-1.017-2.216-1.184-3.5-.5l2 1c-2.386.284-3.052 1.284-2 3a28.931 28.931 0 0 0-4 1.5 6.846 6.846 0 0 0-4-1 4.934 4.934 0 0 0-.5-3 59.63 59.63 0 0 0-7.5 10l.5 2c1.726-1.076 3.559-1.243 5.5-.5-5.438 3.346-10.438 7.846-15 13.5l-1.5 3a156.172 156.172 0 0 0-.5 10c-2.138 2.563-3.805 2.229-5-1 1.978-2.451 2.311-5.118 1-8 1.975-1.249 2.309-2.749 1-4.5 1.894-1.079 2.227-2.413 1-4l3-5c.77-4.822 3.104-9.155 7-13l-1-1c12.658-18.478 28.825-30.978 48.5-37.5.414.457.914.791 1.5 1 1.634-2.249 3.634-2.582 6-1 1.849-1.826 3.849-2.159 6-1a77.007 77.007 0 0 1 11-1.5c44.667-.667 89.333-.667 134 0 2.7.949 3.533 2.783 2.5 5.5-1.167 2.5-3 4.333-5.5 5.5v3a34.761 34.761 0 0 1-6 6l1 1a47.06 47.06 0 0 1-12 11 14.444 14.444 0 0 0-5.5 2.5c-34.159-.052-68.659-.052-103.5 0z" style="opacity:.999"/><path fill="#037feb" d="M191.5 145.5c-4.663 1.003-9.163 1.003-13.5 0-.953 2.092-2.286 2.425-4 1a72.936 72.936 0 0 1-6.5 3 3.647 3.647 0 0 1-1.5-1c-10.106 5.626-18.94 13.46-26.5 23.5l1 1c-1.678.484-2.344 1.317-2 2.5-.876-.131-1.543.202-2 1l-2.5 8-2 24c-1.31 3.666-3.81 6.166-7.5 7.5 2.667.667 2.667 1.333 0 2 1.921 1.241 2.254 2.741 1 4.5.391-1.218-.276-2.052-2-2.5-1.608-.658-2.775-.158-3.5 1.5-2.699-2.134-5.533-3.134-8.5-3a28.931 28.931 0 0 1 1.5 4l1-3c2.071 1.955 2.738 4.288 2 7-1.84-1.333-2.34-1.166-1.5.5a4.457 4.457 0 0 1-2 1.5 30.608 30.608 0 0 1-3-5c.318-1.147.984-1.981 2-2.5-3.798-2.575-4.798-1.742-3 2.5-.333 2.333-1.333 2.667-3 1a98.984 98.984 0 0 0-2.5-9c-.5 27.998-.667 55.998-.5 84a3312.746 3312.746 0 0 1-1-113c1.195 3.229 2.862 3.563 5 1 .051-3.165.218-6.498.5-10l1.5-3c4.562-5.654 9.562-10.154 15-13.5-1.941-.743-3.774-.576-5.5.5l-.5-2a59.63 59.63 0 0 1 7.5-10c.483.948.649 1.948.5 3a6.846 6.846 0 0 1 4 1 28.931 28.931 0 0 1 4-1.5c-1.052-1.716-.386-2.716 2-3l-2-1c1.284-.684 2.451-.517 3.5.5l1.5-1.5c-2.528-2.075-2.361-2.908.5-2.5 1.577-3.525 4.077-5.025 7.5-4.5 1.333-.667 1.333-1.333 0-2l4-3-1-1c3.176-.106 6.509-.606 10-1.5-.188-1.603.312-2.937 1.5-4 2.745-.056 5.245 1.111 7.5 3.5 2.648.099 5.148.265 7.5.5a66.239 66.239 0 0 0 6.5-7l2 3a4.457 4.457 0 0 0 1.5-2c2.041-.143 4.208.191 6.5 1a18.08 18.08 0 0 0 3.5-2 36.575 36.575 0 0 1 6 5c3.119-1.222 4.619-3.222 4.5-6a10.258 10.258 0 0 0-4-1.5c2.068-.687 4.068-.52 6 .5 1.006-.438 1.006-1.104 0-2l4.5-1c5.789.272 5.622.772-.5 1.5 2.667.667 2.667 1.333 0 2 1.167.5 2 1.333 2.5 2.5 4.619-3.756 8.952-3.756 13 0 2.353-4.602 5.019-5.269 8-2 3.705-1.431 7.705-2.097 12-2 2.266 1.456 4.766 2.29 7.5 2.5a20.64 20.64 0 0 0-6 2 12.403 12.403 0 0 1 4 2.5c-1.765 1.553-3.598 1.886-5.5 1-.739 1.074-1.739 1.741-3 2-2.267-1.758-4.767-2.258-7.5-1.5-1.487 2.737-3.821 4.403-7 5a15.91 15.91 0 0 1 4.5 2.5 26.433 26.433 0 0 1 6.5-3c.815 1.776 1.982 2.443 3.5 2a9.454 9.454 0 0 1 2.5-1.5l-1-1a28.931 28.931 0 0 0 4-1.5c3.301 3.494 7.301 5.327 12 5.5-2.728-.639-3.228-1.806-1.5-3.5 3.259 1.073 6.592 1.073 10 0l1.5 1a25.513 25.513 0 0 1-4 4.5 79.066 79.066 0 0 1 10 2c-29.164.78-58.164 1.613-87 2.5z" style="opacity:1"/><path fill="#11d6bc" d="M451.5 154.5c-4.495 6.504-8.828 12.504-13 18 .17-1.322-.163-2.489-1-3.5 3.318-2.795 4.818-6.295 4.5-10.5a198.714 198.714 0 0 0-13.5 11.5c-1.767 1.118-3.601 1.618-5.5 1.5a14.705 14.705 0 0 1-5 4c-2.465-1.555-2.965-3.555-1.5-6-.346-1.196-.846-1.196-1.5 0-.828-4.674-2.828-5.008-6-1-2.61-.153-4.943-1.486-7-4-.943 2.609-2.61 4.609-5 6-1.487-.753-1.654-1.586-.5-2.5a9.454 9.454 0 0 1-2.5-1.5l-8 6c-.711-2.399-.544-4.732.5-7a16.086 16.086 0 0 0-2.5-5 98.623 98.623 0 0 1-8 2 11.068 11.068 0 0 1-3.5-2 32.367 32.367 0 0 1-4.5 3c-.333-1.547.167-2.88 1.5-4-.124-.607-.457-.94-1-1a1202.44 1202.44 0 0 1 20-29c3.282.639 5.615-.861 7-4.5 1.284-.684 2.451-.517 3.5.5-.744 1.665-.577 3.331.5 5-.029 1.529-.696 2.696-2 3.5.457.414.791.914 1 1.5-2.478 1.222-3.478 3.222-3 6 2.59 1.744 5.923 2.744 10 3 1.299-.59 2.132-1.59 2.5-3l1 1c.538-3.503 2.038-4.336 4.5-2.5-1.122 1.613-.622 2.78 1.5 3.5 1.25-1.073 2.584-1.073 4 0 1.301-.598 2.135-1.598 2.5-3-.438-1.006-1.104-1.006-2 0-.886-.825-1.219-1.825-1-3a12.93 12.93 0 0 1 5 .5c-1.196.654-1.196 1.154 0 1.5 2.241-.532 3.741-1.865 4.5-4 .518 4.781 1.852 5.114 4 1 2.711 1.528 5.544 2.361 8.5 2.5a15.256 15.256 0 0 0-4.5 1.5c-.749 1.135-.583 2.135.5 3a3.647 3.647 0 0 0 1.5-1l7 2 1-2c2.864 1.569 5.697 2.069 8.5 1.5a23.577 23.577 0 0 1-1 3.5 3.647 3.647 0 0 1-1.5-1 25.61 25.61 0 0 0-5.5 3.5l5 1c-.299 1.073-.299 2.24 0 3.5z" style="opacity:1"/><path fill="#0ec8b9" d="M368.5 158.5c.543.06.876.393 1 1-1.333 1.12-1.833 2.453-1.5 4a32.367 32.367 0 0 0 4.5-3 11.068 11.068 0 0 0 3.5 2 98.623 98.623 0 0 0 8-2 16.086 16.086 0 0 1 2.5 5c-1.044 2.268-1.211 4.601-.5 7l8-6a9.454 9.454 0 0 0 2.5 1.5c-1.154.914-.987 1.747.5 2.5 2.39-1.391 4.057-3.391 5-6 2.057 2.514 4.39 3.847 7 4 3.172-4.008 5.172-3.674 6 1 .654-1.196 1.154-1.196 1.5 0-1.465 2.445-.965 4.445 1.5 6a14.705 14.705 0 0 0 5-4c1.899.118 3.733-.382 5.5-1.5 4.42-4.112 8.92-7.945 13.5-11.5.318 4.205-1.182 7.705-4.5 10.5.837 1.011 1.17 2.178 1 3.5-2.495 5.608-6.161 10.941-11 16-1.468-1.279-2.135-2.946-2-5h-4c.219 1.175-.114 2.175-1 3a40.796 40.796 0 0 0-6.5 4c-.456 1.244.044 2.077 1.5 2.5a42.319 42.319 0 0 1-8.5 6.5l-3-1a13.24 13.24 0 0 1-5 3c-.273-1.829-1.107-3.329-2.5-4.5 1.711-1.133 2.211-2.633 1.5-4.5l-1 2-2.5-3-7 2c-2.088-.679-4.088-1.012-6-1-12.424 8.067-13.091 6.9-2-3.5a9.454 9.454 0 0 1-1.5-2.5 11.295 11.295 0 0 1-4 2c-1.098-.884-1.598-1.884-1.5-3-1.342 1.402-2.176 1.069-2.5-1-1.395.93-2.895.93-4.5 0a38.929 38.929 0 0 0-5.5 5c-.667-1.333-1.333-1.333-2 0-1.598-3.425-3.598-3.758-6-1-.393-1.699.107-3.199 1.5-4.5-.07-.765-.403-1.265-1-1.5 2.053-4.555 5.053-8.389 9-11.5 1.53-4.19 3.863-8.357 7-12.5z" style="opacity:1"/><path fill="#0dbeb7" d="M352.5 182.5c.597.235.93.735 1 1.5-1.393 1.301-1.893 2.801-1.5 4.5 2.402-2.758 4.402-2.425 6 1 .667-1.333 1.333-1.333 2 0a38.929 38.929 0 0 1 5.5-5c1.605.93 3.105.93 4.5 0 .324 2.069 1.158 2.402 2.5 1-.098 1.116.402 2.116 1.5 3a11.295 11.295 0 0 0 4-2c.374.916.874 1.75 1.5 2.5-11.091 10.4-10.424 11.567 2 3.5 1.912-.012 3.912.321 6 1l7-2 2.5 3 1-2c.711 1.867.211 3.367-1.5 4.5 1.393 1.171 2.227 2.671 2.5 4.5a13.24 13.24 0 0 0 5-3l3 1a42.319 42.319 0 0 0 8.5-6.5c-1.456-.423-1.956-1.256-1.5-2.5a40.796 40.796 0 0 1 6.5-4c.886-.825 1.219-1.825 1-3h4c-.135 2.054.532 3.721 2 5-5.988 9.649-11.988 18.649-18 27-1.347.671-2.514.671-3.5 0l-3 5c-1.667-3.157-3.167-3.324-4.5-.5-1.049.492-2.049.326-3-.5l-3 2c-2.29-2.467-4.457-2.467-6.5 0-1.011-.837-2.178-1.17-3.5-1-.157-2.318-1.324-3.984-3.5-5-3.527 3.237-6.693 3.237-9.5 0-1.054.18-2.054.513-3 1l-1-1.5c1.006-1.338 2.006-2.671 3-4-3.022-.164-5.689.836-8 3-2.695.254-5.195.421-7.5.5-1.193-1.478-1.693-2.812-1.5-4-5.504 1.79-11.004 2.457-16.5 2-.333-1.547.167-2.88 1.5-4-.124-.607-.457-.94-1-1 6.034-9.137 11.7-17.47 17-25z" style="opacity:1"/><path fill="#0381ed" d="M499.5 217.5v76c-.876.131-1.543-.202-2-1a51.28 51.28 0 0 0-2-6c-1.542-1.247-3.042-1.247-4.5 0-2-1-2-2 0-3 1.494 1.247 2.994 1.247 4.5 0-1.333-1-1.333-2 0-3-.346-1.196-.846-1.196-1.5 0a15.256 15.256 0 0 0-1.5-4.5l-1.5-.5a25.936 25.936 0 0 1-4.5 4c-.915-2.48-2.415-3.147-4.5-2-1.049-1.607-2.549-2.273-4.5-2 .262 1.478-.071 2.811-1 4l-1-.5c.897-1.882.897-4.049 0-6.5 1.181-3.296 3.014-3.296 5.5 0a29.517 29.517 0 0 1 4.5-2.5 6.978 6.978 0 0 1-2.5-3.5c-1.137.864-2.47 1.864-4 3-1.852-1.73-1.686-2.896.5-3.5a11.532 11.532 0 0 1-4.5-3.5c-1.981-12.457-3.147-25.457-3.5-39a102.077 102.077 0 0 0-1-18.5c.345-2.347 1.512-4.181 3.5-5.5a2627.828 2627.828 0 0 1 25.5 18z" style="opacity:1"/><path fill="#0073ed" d="M34.5 138.5c.172 24.01-.161 48.01-1 72a4396.42 4396.42 0 0 0-1.5 94 102.63 102.63 0 0 1-1.5 13 11.248 11.248 0 0 1 1 3.5 318.747 318.747 0 0 1-2 15.5c-.951-.826-1.951-.992-3-.5l1 3a66.172 66.172 0 0 1-8 13c-3.974 3.2-7.64 3.033-11-.5.193 1.188-.307 2.522-1.5 4-2.022-2.469-1.855-4.635.5-6.5-2.113-2.932-3.446-6.099-4-9.5-.167-44.001 0-88.001.5-132l1 3a66.981 66.981 0 0 1 1.5-5.5c-.579-2.054-.912-4.054-1-6 1.545-1.688 2.545-3.688 3-6-2.667-.667-2.667-1.333 0-2-1.154-.914-.987-1.747.5-2.5.741 1.141 1.575 1.141 2.5 0 3.213.222 5.046 1.888 5.5 5 .283-3.242 1.117-3.576 2.5-1 .827-1.662 1.993-2.995 3.5-4-1.204-3.191-.037-5.357 3.5-6.5-1.333-.667-1.333-1.333 0-2 1.608.019 3.274.185 5 .5a1430.684 1430.684 0 0 0 1.5-41c.383-.556.883-.889 1.5-1z" style="opacity:1"/><path fill="#0bb3b8" d="M335.5 207.5c.543.06.876.393 1 1-1.333 1.12-1.833 2.453-1.5 4 5.496.457 10.996-.21 16.5-2-.193 1.188.307 2.522 1.5 4 2.305-.079 4.805-.246 7.5-.5 2.311-2.164 4.978-3.164 8-3-.994 1.329-1.994 2.662-3 4l1 1.5c.946-.487 1.946-.82 3-1 2.807 3.237 5.973 3.237 9.5 0 2.176 1.016 3.343 2.682 3.5 5 1.322-.17 2.489.163 3.5 1 2.043-2.467 4.21-2.467 6.5 0l3-2c.951.826 1.951.992 3 .5 1.333-2.824 2.833-2.657 4.5.5l3-5c.986.671 2.153.671 3.5 0-2.734 3.62-5.068 6.953-7 10-1.188 1.184-2.355 1.184-3.5 0l-2.5 6a12.375 12.375 0 0 0-4.5 5c-1.067-1.783-2.567-2.283-4.5-1.5-2.851 3.231-5.684 5.731-8.5 7.5-1.309-2.391-2.309-2.391-3 0-.914-1.154-1.747-.987-2.5.5-4.279.916-6.112-.917-5.5-5.5a22.38 22.38 0 0 1-7 5c-.617-.949-.451-1.782.5-2.5a4.457 4.457 0 0 0-2-1.5c-3.381.358-6.881.358-10.5 0l-9 4a127.818 127.818 0 0 1-2-3l-1 1c-.674-1.078-1.674-1.745-3-2-1.669.666-3.169.666-4.5 0 .204 1.029-.296 2.029-1.5 3l-1.5-1.5a210.303 210.303 0 0 1-34-8c.245-2.089.245-4.089 0-6l-3-3a118.794 118.794 0 0 1 25-3 1095.91 1095.91 0 0 1-47-1.5c20.003.167 40.003 0 60-.5 2.53-3.105 5.197-6.605 8-10.5z" style="opacity:1"/><path fill="#0371e8" d="M138.5 175.5c-2.144 4.662-3.478 9.329-4 14 .418 39.04.418 78.04 0 117 1.365 3.513 2.365 6.846 3 10l-1 2c3.664 7.047 8.331 13.88 14 20.5 6.196 4.526 11.696 8.36 16.5 11.5 2.188-.682 4.355-.348 6.5 1-.363 2.411.637 3.911 3 4.5-3.494 1.028-6.161 2.694-8 5 .837 1.011 1.17 2.178 1 3.5-4.393.043-4.726-.457-1-1.5l-2-.5c-1.655.728-3.321.895-5 .5 2.457-1.154 2.457-2.488 0-4-1.303-.21-2.636-.043-4 .5a63.934 63.934 0 0 0-7.5-6 6.978 6.978 0 0 1-2.5 3.5l1 1c-1.798 1.505-3.632 1.672-5.5.5l-1 6a4.457 4.457 0 0 1-1.5-2c.985-1.598 1.151-3.265.5-5-.388.928-1.055 1.595-2 2-1.162-.687-2.328-.853-3.5-.5l1 1c-.928.388-1.595 1.055-2 2 1.521 3.811.855 4.311-2 1.5-.607.124-.94.457-1 1-6.204-5.007-11.204-10.507-15-16.5-3.534-6.4-7.201-13.733-11-22a41.03 41.03 0 0 1 0-5.5c-1.867-1.297-2.2-2.797-1-4.5l-2-3a245.005 245.005 0 0 1 0-13.5c-.167-28.002 0-56.002.5-84a98.984 98.984 0 0 1 2.5 9c1.667 1.667 2.667 1.333 3-1-1.798-4.242-.798-5.075 3-2.5-1.016.519-1.682 1.353-2 2.5a30.608 30.608 0 0 0 3 5 4.457 4.457 0 0 0 2-1.5c-.84-1.666-.34-1.833 1.5-.5.738-2.712.071-5.045-2-7l-1 3a28.931 28.931 0 0 0-1.5-4c2.967-.134 5.801.866 8.5 3 .725-1.658 1.892-2.158 3.5-1.5 1.724.448 2.391 1.282 2 2.5 1.254-1.759.921-3.259-1-4.5 2.667-.667 2.667-1.333 0-2 3.69-1.334 6.19-3.834 7.5-7.5l2-24 2.5-8c.457-.798 1.124-1.131 2-1z" style="opacity:.999"/><path fill="#07a7b7" d="M267.5 218.5a1095.91 1095.91 0 0 0 47 1.5 118.794 118.794 0 0 0-25 3l3 3c.245 1.911.245 3.911 0 6a210.303 210.303 0 0 0 34 8l1.5 1.5c1.204-.971 1.704-1.971 1.5-3 1.331.666 2.831.666 4.5 0 1.326.255 2.326.922 3 2l1-1a127.818 127.818 0 0 0 2 3l9-4c3.619.358 7.119.358 10.5 0a4.457 4.457 0 0 1 2 1.5c-.951.718-1.117 1.551-.5 2.5a22.38 22.38 0 0 0 7-5c-.612 4.583 1.221 6.416 5.5 5.5.753-1.487 1.586-1.654 2.5-.5.691-2.391 1.691-2.391 3 0 2.816-1.769 5.649-4.269 8.5-7.5 1.933-.783 3.433-.283 4.5 1.5a12.375 12.375 0 0 1 4.5-5l2.5-6c1.145 1.184 2.312 1.184 3.5 0a1100.2 1100.2 0 0 0-20.5 31c-4.421 5.151-9.087 9.151-14 12-1.016-1.134-1.683-.801-2 1a3.647 3.647 0 0 0-1.5-1c-2.787 2.222-5.787 2.889-9 2-15.337.167-30.67 0-46-.5l3-1a235.405 235.405 0 0 1-19-3l6-3-1-1a4.457 4.457 0 0 0 2-1.5 89.985 89.985 0 0 1-12-5.5 120.348 120.348 0 0 1-19-4.5c-1.946 1.587-3.446 1.254-4.5-1-1.137.864-2.47 1.864-4 3-2.128-2.115-4.628-3.782-7.5-5-2.13.258-4.296.591-6.5 1l-.5-1a34.251 34.251 0 0 1 8-1.5 20.924 20.924 0 0 1-8.5-4.5c-1.398.551-2.732.884-4 1-1.113-1.26-1.28-2.427-.5-3.5a14.72 14.72 0 0 1-5-1.5 18.924 18.924 0 0 1 3-5 17.903 17.903 0 0 1-5-1c1.906-3.078 4.406-5.744 7.5-8l1 1c1.657-2.067 3.324-3.4 5-4 1.406 1.168 2.572.835 3.5-1 1.564.686 3.231.519 5-.5a60.931 60.931 0 0 1 11-.5z" style="opacity:1"/><path fill="#069db5" d="M234.5 231.5c1.619.572 3.285.905 5 1a18.924 18.924 0 0 0-3 5 14.72 14.72 0 0 0 5 1.5c-.78 1.073-.613 2.24.5 3.5 1.268-.116 2.602-.449 4-1a20.924 20.924 0 0 0 8.5 4.5 34.251 34.251 0 0 0-8 1.5l.5 1c2.204-.409 4.37-.742 6.5-1 2.872 1.218 5.372 2.885 7.5 5a455.529 455.529 0 0 0 4-3c1.054 2.254 2.554 2.587 4.5 1a120.348 120.348 0 0 0 19 4.5 89.985 89.985 0 0 0 12 5.5 4.457 4.457 0 0 1-2 1.5l1 1-6 3a235.405 235.405 0 0 0 19 3l-3 1c15.33.5 30.663.667 46 .5-.763.768-1.763 1.268-3 1.5-31.687.605-63.354.605-95 0a10.515 10.515 0 0 1-3 2.5c-2.015-1.353-3.682-.853-5 1.5-6.039.945-6.372-.388-1-4-.459-1.943.541-3.276 3-4-.869-2.368-2.535-3.868-5-4.5a56.025 56.025 0 0 1-7 5 8.192 8.192 0 0 0-4-2.5c1.333-1 1.333-2 0-3h-4l2-2c.63-2.816-.036-5.482-2-8l2-1a28.931 28.931 0 0 1-4-1.5l-1 2a3.647 3.647 0 0 1-1.5-1c-3.519.293-6.353 1.793-8.5 4.5a8.43 8.43 0 0 1-4 .5c-1.403 5.066-4.736 8.066-10 9a7097.16 7097.16 0 0 0 23.5-29 25.53 25.53 0 0 1 6.5-5z" style="opacity:1"/><path fill="#0c96bb" d="M254.5 274.5a641.012 641.012 0 0 1-28 32c-1.333.333-1.333.667 0 1-2.966 3.817-6.132 6.817-9.5 9l-1-1c-.605 1.981-1.605 2.315-3 1l-1.5 1.5a323.223 323.223 0 0 1-44-.5 18.08 18.08 0 0 0-2-3.5 13851.97 13851.97 0 0 0 39-48.5c5.264-.934 8.597-3.934 10-9a8.43 8.43 0 0 0 4-.5c2.147-2.707 4.981-4.207 8.5-4.5.414.457.914.791 1.5 1l1-2a28.931 28.931 0 0 0 4 1.5l-2 1c1.964 2.518 2.63 5.184 2 8l-2 2h4c1.333 1 1.333 2 0 3a8.192 8.192 0 0 1 4 2.5 56.025 56.025 0 0 0 7-5c2.465.632 4.131 2.132 5 4.5-2.459.724-3.459 2.057-3 4-5.372 3.612-5.039 4.945 1 4 1.318-2.353 2.985-2.853 5-1.5z" style="opacity:1"/><path fill="#0d73e7" d="M408.5 293.5c-.426 9.667-.926 19.333-1.5 29a58.036 58.036 0 0 1-2.5 15l-1 1c-1.99-3.53-2.823-3.197-2.5 1-1.84-1.333-2.34-1.166-1.5.5-1.95-.123-3.617.877-5 3l2 1a54.628 54.628 0 0 0-7 2c-1.333.667-1.333 1.333 0 2-1.771 2.113-3.271 1.947-4.5-.5-.359 3.044-1.026 3.378-2 1-1.317 2.232-2.15 4.232-2.5 6a6.802 6.802 0 0 1-1.5-3l-1 5c-1.364-.758-2.531-.258-3.5 1.5a26.67 26.67 0 0 0-6.5 1.5c-1.561-.153-3.395-.486-5.5-1-1.786-.196-3.119-1.029-4-2.5 2.41.227 4.91-.273 7.5-1.5a3.943 3.943 0 0 1 2 1 23.082 23.082 0 0 0 7-6l3.5-14c-1.605-1.324-2.271-3.657-2-7 .104-11.945.104-23.779 0-35.5 1.801-.317 2.134-.984 1-2 8.005-5.336 14.338-11.669 19-19a94.85 94.85 0 0 0 10.5-12.5c.414.457.914.791 1.5 1l1 9a361.433 361.433 0 0 0-1 24z" style="opacity:1"/><path fill="#00fffe" d="M226.5 306.5c1.333.667 1.333.667 0 0z" style="opacity:.004"/><path fill="#0663e4" d="M33.5 210.5c-.167 44.335 0 88.668.5 133 .404 11.617 2.237 22.617 5.5 33-1.168 1.406-.835 2.572 1 3.5v5c2.92 5.637 5.92 12.137 9 19.5 13.379 22.862 32.212 40.862 56.5 54l1-1a85.16 85.16 0 0 0 8.5 5 102.944 102.944 0 0 1 13 8c3.266-1.61 6.266-1.276 9 1a3.647 3.647 0 0 0 1.5-1 57.078 57.078 0 0 0 12.5 2.5c3.184 1.806 3.517 3.806 1 6l5 3a18.473 18.473 0 0 0-2 3.5c-5.51-1.184-11.01-1.184-16.5 0a11.295 11.295 0 0 1-4-2l-1 3c-2.107-1.833-4.607-2.999-7.5-3.5 1.196-.654 1.196-1.154 0-1.5-3.354-.704-6.52-.704-9.5 0a14.705 14.705 0 0 1-5-4c-1.796.413-3.463.413-5 0l-1.5 1.5c1.076 1.726 1.243 3.559.5 5.5-.667-2.667-1.333-2.667-2 0l-1-2a7.293 7.293 0 0 1-2 3c.263-1.451.096-2.784-.5-4-1.806-1.359-3.306-1.025-4.5 1a20.888 20.888 0 0 0-6.5-3.5c.84-1.666.34-1.833-1.5-.5a12.935 12.935 0 0 0-.5 5c-5.95-1.842-11.784-5.509-17.5-11-4.272-.88-7.605-3.547-10-8l-1 1c-29.709-26.931-48.209-59.598-55.5-98a56.206 56.206 0 0 1 0-10v-18c.554 3.401 1.887 6.568 4 9.5-2.355 1.865-2.522 4.031-.5 6.5 1.193-1.478 1.693-2.812 1.5-4 3.36 3.533 7.026 3.7 11 .5a66.172 66.172 0 0 0 8-13l-1-3c1.049-.492 2.049-.326 3 .5a318.87 318.87 0 0 0 2-15.5 11.248 11.248 0 0 0-1-3.5 102.63 102.63 0 0 0 1.5-13 4396.42 4396.42 0 0 1 1.5-94z" style="opacity:1"/><path fill="#0866e6" d="M408.5 293.5c-.046 39.832.121 79.832.5 120-1.2 3.746-3.366 6.746-6.5 9-.925-1.141-1.759-1.141-2.5 0-9.708-10.428-19.375-19.428-29-27a93.505 93.505 0 0 0-20-10c-56.934-.335-114.101-.335-171.5 0a6.895 6.895 0 0 1-4-2c-10.213.823-19.379-1.844-27.5-8l-1 1c-1.667-1-3-2.333-4-4l-1 1a139.293 139.293 0 0 1-10.5-9c.06-.543.393-.876 1-1 2.855 2.811 3.521 2.311 2-1.5.405-.945 1.072-1.612 2-2l-1-1c1.172-.353 2.338-.187 3.5.5.945-.405 1.612-1.072 2-2 .651 1.735.485 3.402-.5 5a4.457 4.457 0 0 0 1.5 2l1-6c1.868 1.172 3.702 1.005 5.5-.5l-1-1a6.978 6.978 0 0 0 2.5-3.5 63.934 63.934 0 0 1 7.5 6c1.364-.543 2.697-.71 4-.5 2.457 1.512 2.457 2.846 0 4 1.679.395 3.345.228 5-.5l2 .5c-3.726 1.043-3.393 1.543 1 1.5.17-1.322-.163-2.489-1-3.5 1.839-2.306 4.506-3.972 8-5-2.363-.589-3.363-2.089-3-4.5 4.19 1.405 8.357 2.405 12.5 3 56-1.333 112-1.333 168 0 4.764-1.719 9.764-3.719 15-6 4.036-6.183 6.536-12.85 7.5-20-.271 3.343.395 5.676 2 7l-3.5 14a23.082 23.082 0 0 1-7 6 3.943 3.943 0 0 0-2-1c-2.59 1.227-5.09 1.727-7.5 1.5.881 1.471 2.214 2.304 4 2.5 2.105.514 3.939.847 5.5 1a26.67 26.67 0 0 1 6.5-1.5c.969-1.758 2.136-2.258 3.5-1.5l1-5a6.802 6.802 0 0 0 1.5 3c.35-1.768 1.183-3.768 2.5-6 .974 2.378 1.641 2.044 2-1 1.229 2.447 2.729 2.613 4.5.5-1.333-.667-1.333-1.333 0-2a54.628 54.628 0 0 1 7-2l-2-1c1.383-2.123 3.05-3.123 5-3-.84-1.666-.34-1.833 1.5-.5-.323-4.197.51-4.53 2.5-1l1-1a58.036 58.036 0 0 0 2.5-15c.574-9.667 1.074-19.333 1.5-29z" style="opacity:1"/><path fill="#0671e8" d="M471.5 223.5c.353 13.543 1.519 26.543 3.5 39a11.532 11.532 0 0 0 4.5 3.5c-2.186.604-2.352 1.77-.5 3.5a455.529 455.529 0 0 0 4-3 6.978 6.978 0 0 0 2.5 3.5 29.517 29.517 0 0 0-4.5 2.5c-2.486-3.296-4.319-3.296-5.5 0 .897 2.451.897 4.618 0 6.5l1 .5c.929-1.189 1.262-2.522 1-4 1.951-.273 3.451.393 4.5 2 2.085-1.147 3.585-.48 4.5 2a25.936 25.936 0 0 0 4.5-4l1.5.5a15.256 15.256 0 0 1 1.5 4.5c.654-1.196 1.154-1.196 1.5 0-1.333 1-1.333 2 0 3-1.506 1.247-3.006 1.247-4.5 0-2 1-2 2 0 3 1.458-1.247 2.958-1.247 4.5 0a51.28 51.28 0 0 1 2 6c.457.798 1.124 1.131 2 1v79c-1.333.333-1.333.667 0 1v1c-1.333.333-1.333.667 0 1v1a460.492 460.492 0 0 1-6 15.5c.457.414.791.914 1 1.5a566.39 566.39 0 0 1-3 4.5c.958 1.147.625 2.147-1 3l1 1a430.423 430.423 0 0 0-7 13.5c1.451-7.248 3.451-14.581 6-22-1.322.17-2.489-.163-3.5-1-1.333 3.333-3.667 5.667-7 7-1.016-1.134-1.683-.801-2 1-.423-1.456-1.256-1.956-2.5-1.5-1.646 3.31-3.98 5.977-7 8 2.401.805 2.234 1.638-.5 2.5-.993 3.345-2.66 6.345-5 9-1.889-1.983-3.222-4.316-4-7-.906 2.621-1.406 2.454-1.5-.5l.5-2.5c.654 1.196 1.154 1.196 1.5 0a11.456 11.456 0 0 1-1-2.5 276.952 276.952 0 0 0 8-24.5c-1.414-1.638-1.08-2.972 1-4-.971-1.462-.638-2.795 1-4-1.11-1.996-.776-3.829 1-5.5-.899-2.538-.566-5.038 1-7.5-1.271-6.542-.937-13.042 1-19.5a1742.383 1742.383 0 0 1 0-117.5z" style="opacity:.999"/><path fill="#0461e2" d="M466.5 381.5a276.952 276.952 0 0 1-8 24.5c.235.873.569 1.707 1 2.5-.346 1.196-.846 1.196-1.5 0l-.5 2.5c.094 2.954.594 3.121 1.5.5.778 2.684 2.111 5.017 4 7 2.34-2.655 4.007-5.655 5-9 2.734-.862 2.901-1.695.5-2.5 3.02-2.023 5.354-4.69 7-8 1.244-.456 2.077.044 2.5 1.5.317-1.801.984-2.134 2-1 3.333-1.333 5.667-3.667 7-7 1.011.837 2.178 1.17 3.5 1-2.549 7.419-4.549 14.752-6 22-14.112 28.317-35.612 50.983-64.5 68-.383-.556-.883-.889-1.5-1-.06-.543-.393-.876-1-1a98.592 98.592 0 0 1-8.5 4 11.068 11.068 0 0 1-3.5-2c-.793.855-.46 1.689 1 2.5-1.547.333-2.88-.167-4-1.5l-3 1.5a7.293 7.293 0 0 1 3 2c-2.169.429-4.169-.071-6-1.5a9.425 9.425 0 0 0-3 3c-.697-1.885-1.697-2.218-3-1-2.481-1.36-2.148-2.36 1-3 .929-1.189 1.262-2.522 1-4 2.982-.327 5.815-.327 8.5 0 1.49-2.058 3.49-3.391 6-4 3.916 1.782 7.416.782 10.5-3-.855-.793-1.689-.46-2.5 1l-2-2a87.783 87.783 0 0 0-5 3 3.943 3.943 0 0 0-2-1 57.56 57.56 0 0 0-8 3c-2.931-1.58-5.264-.913-7 2l-1-1c-2.312.455-4.312 1.455-6 3-1.395-1.315-2.395-.981-3 1a4.457 4.457 0 0 0-1.5-2c-1.196.346-1.196.846 0 1.5-3.832-.038-7.332.795-10.5 2.5l-1-2c-4.853.74-10.02.74-15.5 0-1.181-1.567-2.847-2.401-5-2.5l8-1-7-1c-1.333-.667-1.333-1.333 0-2-1.238.077-2.238-.089-3-.5 1.189-.929 2.522-1.262 4-1v3c3.49-2.308 7.49-3.475 12-3.5a9.454 9.454 0 0 0 1.5-2.5 4.457 4.457 0 0 0 1.5 2c.236-.747.57-1.58 1-2.5a43.43 43.43 0 0 0 12.5-2.5c2.906.912 5.573.246 8-2l1 1a18.117 18.117 0 0 1 5.5-4.5c11.251-2.212 21.417-6.712 30.5-13.5.414.457.914.791 1.5 1 .033-1.489.533-2.822 1.5-4 2.242.675 4.409.175 6.5-1.5l-1-1c1.939-.908 2.939-2.408 3-4.5a30.738 30.738 0 0 0 6.5-3 3.943 3.943 0 0 1 2 1 40.508 40.508 0 0 1 8.5-5.5 4.457 4.457 0 0 1-2-1.5c3.642-3.999 2.975-7.499-2-10.5a57.878 57.878 0 0 1 3-6.5c6.42-10.825 11.753-21.825 16-33z" style="opacity:1"/><path fill="#035deb" d="M450.5 414.5a57.878 57.878 0 0 0-3 6.5c4.975 3.001 5.642 6.501 2 10.5a4.457 4.457 0 0 0 2 1.5 40.508 40.508 0 0 0-8.5 5.5 3.943 3.943 0 0 0-2-1 30.738 30.738 0 0 1-6.5 3c-.061 2.092-1.061 3.592-3 4.5l1 1c-2.091 1.675-4.258 2.175-6.5 1.5-.967 1.178-1.467 2.511-1.5 4a3.647 3.647 0 0 1-1.5-1c-9.083 6.788-19.249 11.288-30.5 13.5a18.117 18.117 0 0 0-5.5 4.5l-1-1c-2.427 2.246-5.094 2.912-8 2a43.43 43.43 0 0 1-12.5 2.5 20.79 20.79 0 0 0-1 2.5 4.457 4.457 0 0 1-1.5-2 9.454 9.454 0 0 1-1.5 2.5c-4.51.025-8.51 1.192-12 3.5v-3c-1.478-.262-2.811.071-4 1 .762.411 1.762.577 3 .5-1.333.667-1.333 1.333 0 2l7 1-8 1c2.153.099 3.819.933 5 2.5-5.602.352-11.102.352-16.5 0a20.431 20.431 0 0 1-5.5 1.5c.862 2.734 1.695 2.901 2.5.5a4.457 4.457 0 0 1 1.5 2 168.028 168.028 0 0 1-6.5 2 128.403 128.403 0 0 0-27.5-.5c-.608.87-1.441 1.37-2.5 1.5-2.424-.683-4.758-1.016-7-1-4.455 2.115-8.788 2.115-13 0-3.894 1.104-7.894 1.104-12 0-3.577 2.166-7.244 2.166-11 0-9.506.901-19.173.901-29 0l-7 2c-7.466-1.551-15.3-2.885-23.5-4-9.659.613-19.325.779-29 .5 9.333-.667 9.333-1.333 0-2 2.324-1.374 4.657-1.707 7-1l1-1c-6.604-.102-12.937.398-19 1.5a18.473 18.473 0 0 1 2-3.5l-5-3c2.517-2.194 2.184-4.194-1-6a57.078 57.078 0 0 1-12.5-2.5 3.647 3.647 0 0 1-1.5 1c-2.734-2.276-5.734-2.61-9-1a102.944 102.944 0 0 0-13-8c6.019 1.071 11.519 2.737 16.5 5 3.778.555 7.778.555 12 0a50.977 50.977 0 0 1 6.5 2 29914.43 29914.43 0 0 1 204.5 0l6-2c3.87.231 7.704.231 11.5 0 31.306-8.55 55.64-24.717 73-48.5 1.349-.772 2.182-1.939 2.5-3.5.671-.752 1.504-1.086 2.5-1z" style="opacity:1"/><path fill="#0359e4" d="M418.5 482.5c.107 1.879-.393 2.212-1.5 1a62.91 62.91 0 0 1-11 7l-1-1a13.24 13.24 0 0 1-5 3h-4c-.677 2.189-1.844 2.522-3.5 1a3729.116 3729.116 0 0 1-16 6h-2c-.333-1.333-.667-1.333-1 0h-242c-.667-1.333-1.333-1.333-2 0h-1c-5.102-1.648-10.436-3.648-16-6-1.835.334-3.502.334-5 0-.928-1.835-2.094-2.168-3.5-1a454.851 454.851 0 0 1-16.5-9c-.16-1.699.007-3.366.5-5 1.84-1.333 2.34-1.166 1.5.5a20.888 20.888 0 0 1 6.5 3.5c1.194-2.025 2.694-2.359 4.5-1 .596 1.216.763 2.549.5 4a7.293 7.293 0 0 0 2-3l1 2c.667-2.667 1.333-2.667 2 0 .743-1.941.576-3.774-.5-5.5l1.5-1.5c1.537.413 3.204.413 5 0a14.705 14.705 0 0 0 5 4c2.98-.704 6.146-.704 9.5 0 1.196.346 1.196.846 0 1.5 2.893.501 5.393 1.667 7.5 3.5l1-3a11.295 11.295 0 0 0 4 2c5.49-1.184 10.99-1.184 16.5 0 6.063-1.102 12.396-1.602 19-1.5l-1 1c-2.343-.707-4.676-.374-7 1 9.333.667 9.333 1.333 0 2 9.675.279 19.341.113 29-.5 8.2 1.115 16.034 2.449 23.5 4l7-2c9.827.901 19.494.901 29 0 3.756 2.166 7.423 2.166 11 0 4.106 1.104 8.106 1.104 12 0 4.212 2.115 8.545 2.115 13 0 2.242-.016 4.576.317 7 1 1.059-.13 1.892-.63 2.5-1.5 9.245-.817 18.411-.65 27.5.5a168.028 168.028 0 0 0 6.5-2 4.457 4.457 0 0 0-1.5-2c-.805 2.401-1.638 2.234-2.5-.5a20.431 20.431 0 0 0 5.5-1.5c5.398.352 10.898.352 16.5 0 5.48.74 10.647.74 15.5 0l1 2c3.168-1.705 6.668-2.538 10.5-2.5-1.196-.654-1.196-1.154 0-1.5a4.457 4.457 0 0 1 1.5 2c.605-1.981 1.605-2.315 3-1 1.688-1.545 3.688-2.545 6-3l1 1c1.736-2.913 4.069-3.58 7-2a57.56 57.56 0 0 1 8-3 3.943 3.943 0 0 1 2 1 87.783 87.783 0 0 1 5-3l2 2c.811-1.46 1.645-1.793 2.5-1-3.084 3.782-6.584 4.782-10.5 3-2.51.609-4.51 1.942-6 4-2.685-.327-5.518-.327-8.5 0 .262 1.478-.071 2.811-1 4-3.148.64-3.481 1.64-1 3 1.303-1.218 2.303-.885 3 1a9.425 9.425 0 0 1 3-3c1.831 1.429 3.831 1.929 6 1.5a7.293 7.293 0 0 0-3-2l3-1.5c1.12 1.333 2.453 1.833 4 1.5-1.46-.811-1.793-1.645-1-2.5a11.068 11.068 0 0 0 3.5 2 98.592 98.592 0 0 0 8.5-4c.607.124.94.457 1 1z" style="opacity:1"/></svg>