<?xml version="1.0" encoding="UTF-8"?>
<svg version="1.1" xmlns="http://www.w3.org/2000/svg" width="607" height="220">
<path d="M0 0 C-1.6640776 9.19814321 -4.13327942 18.12540051 -6.625 27.125 C-7.04979641 28.6691836 -7.47427805 30.21345382 -7.8984375 31.7578125 C-8.92866695 35.50621651 -9.96314353 39.25342396 -11 43 C-11.45890625 42.60167969 -11.9178125 42.20335937 -12.390625 41.79296875 C-13.00421875 41.26316406 -13.6178125 40.73335937 -14.25 40.1875 C-14.85328125 39.66542969 -15.4565625 39.14335938 -16.078125 38.60546875 C-18.00366028 36.99694233 -19.98795976 35.49805541 -22 34 C-22.7270237 34.95923622 -22.7270237 34.95923622 -23.46873474 35.93785095 C-26.68625538 39.70335454 -29.27036785 42.56138993 -34.1723938 43.80447388 C-37.8849699 44.03833513 -41.50507768 44.01299601 -45.22265625 43.87890625 C-46.57738482 43.86208527 -47.93216877 43.84929058 -49.28697205 43.84031677 C-52.82465205 43.80622042 -56.35891785 43.71807189 -59.89526367 43.61798096 C-63.51499245 43.52531639 -67.13528222 43.48468354 -70.75585938 43.43945312 C-77.83862255 43.34340902 -84.91908649 43.19015112 -92 43 C-91.98667633 44.18128479 -91.97335266 45.36256958 -91.95962524 46.57965088 C-91.83807731 57.70368673 -91.74809141 68.82758815 -91.68912697 79.95213699 C-91.65779351 85.67166027 -91.61528285 91.39064817 -91.54736328 97.10986328 C-91.4822442 102.62769593 -91.44630914 108.14501318 -91.43073654 113.66320038 C-91.41963691 115.77003853 -91.39796183 117.87684797 -91.36561966 119.9834671 C-91.32215579 122.93133328 -91.31606173 125.87706107 -91.31884766 128.82519531 C-91.297276 129.69913437 -91.27570435 130.57307343 -91.253479 131.47349548 C-91.27734839 133.8026845 -91.35278253 135.76207144 -92 138 C-96.53492399 142 -96.53492399 142 -100 142 C-95.53648711 147.22325977 -90.9255107 152.20922972 -86 157 C-85.01 156.34 -84.02 155.68 -83 155 C-80.95703125 154.8046875 -80.95703125 154.8046875 -78.8125 154.875 C-77.554375 154.91625 -76.29625 154.9575 -75 155 C-74.01 157.475 -74.01 157.475 -73 160 C-72.236875 159.9175 -71.47375 159.835 -70.6875 159.75 C-68 160 -68 160 -66.1875 161.75 C-65 164 -65 164 -65 168 C-63.68 168.33 -62.36 168.66 -61 169 C-60.505 172.465 -60.505 172.465 -60 176 C-58.700625 176.144375 -57.40125 176.28875 -56.0625 176.4375 C-50.44567346 177.61765471 -47.63986013 180.90381484 -43.9453125 185.1015625 C-42.09518556 187.3492158 -42.09518556 187.3492158 -39 187 C-39.56521711 183.37783399 -40.87410259 181.86520432 -43.5625 179.4375 C-45.50390625 177.68359375 -45.50390625 177.68359375 -47 176 C-47 175.01 -47 174.02 -47 173 C-42.19204845 173.67611819 -40.107987 176.83116288 -37 180.28515625 C-34.93298517 182.43394231 -34.93298517 182.43394231 -31 182 C-31.56959153 178.37386801 -32.92374534 176.74482259 -35.5625 174.25 C-36.20316406 173.63640625 -36.84382812 173.0228125 -37.50390625 172.390625 C-37.99761719 171.93171875 -38.49132812 171.4728125 -39 171 C-38.67 170.01 -38.34 169.02 -38 168 C-34.56404834 169.52708963 -31.88087546 171.59927045 -29 174 C-28.34 173.01 -27.68 172.02 -27 171 C-32.17894049 164.95093901 -37.5617835 159.13449202 -43.125 153.4375 C-43.91003906 152.60669922 -44.69507813 151.77589844 -45.50390625 150.91992188 C-46.26832031 150.14068359 -47.03273438 149.36144531 -47.8203125 148.55859375 C-48.50367676 147.85017334 -49.18704102 147.14175293 -49.89111328 146.41186523 C-51.94571713 144.72038744 -51.94571713 144.72038744 -54.64404297 145.21118164 C-56.98033942 145.90989113 -56.98033942 145.90989113 -58.875 147.0625 C-62.0863117 148.47925516 -64.52771365 148.35920204 -68 148 C-71.375 146.3125 -71.375 146.3125 -74 144 C-74.495 141.525 -74.495 141.525 -75 139 C-71.7 136.69 -68.4 134.38 -65 132 C-66.60875 132.37125 -68.2175 132.7425 -69.875 133.125 C-73.97766157 133.54005526 -75.52461459 133.33032064 -78.95703125 130.9453125 C-81.53617765 128.399374 -83.8899509 125.94766078 -86 123 C-86 122.01 -86 121.02 -86 120 C-83.48186148 120.38202529 -82.30230245 120.63775827 -80.640625 122.62890625 C-80.18171875 123.26699219 -79.7228125 123.90507813 -79.25 124.5625 C-76.58591121 127.38666279 -75.37953443 127.96580019 -71.4453125 128.3203125 C-69.38383846 128.28624063 -67.33383734 128.18519776 -65.27539062 128.07006836 C-59.1883605 127.78922597 -54.37465976 129.10577933 -48.671875 131.3203125 C-46.08646941 132.25364141 -46.08646941 132.25364141 -44.02856445 131.23242188 C-41.9669393 129.9799145 -40.52356293 128.71023826 -38.87109375 126.9609375 C-38.31099609 126.38085938 -37.75089844 125.80078125 -37.17382812 125.203125 C-36.01052105 123.97831576 -34.84907832 122.75173324 -33.68945312 121.5234375 C-32.85124023 120.6571875 -32.85124023 120.6571875 -31.99609375 119.7734375 C-31.49263428 119.24153809 -30.9891748 118.70963867 -30.47045898 118.16162109 C-29 117 -29 117 -26 117 C-26.50190033 121.18893733 -28.77269295 123.04743916 -31.75 125.875 C-34.6875829 128.69157451 -37.39020113 131.37291409 -39.75 134.6875 C-40.86375 135.8321875 -40.86375 135.8321875 -42 137 C-45.39006131 136.93219877 -47.79855795 136.06714735 -51 135 C-58.80968029 133.73831341 -63.70849762 136.58675407 -70 141 C-68.08993448 143.32316171 -68.08993448 143.32316171 -64.8125 143.375 C-61.21778821 143.02142179 -60.17806189 142.70303086 -57.3125 140.875 C-56.219375 140.25625 -55.12625 139.6375 -54 139 C-50.55902647 140.12602714 -48.39463236 142.37211564 -45.890625 144.9140625 C-45.13652344 145.67460937 -44.38242187 146.43515625 -43.60546875 147.21875 C-42.82816406 148.0128125 -42.05085937 148.806875 -41.25 149.625 C-40.45722656 150.42679688 -39.66445313 151.22859375 -38.84765625 152.0546875 C-36.89385507 154.03202846 -34.94487897 156.01388909 -33 158 C-30.66209636 156.00528647 -28.32988836 154.00406803 -26 152 C-24.6696875 150.85724609 -24.6696875 150.85724609 -23.3125 149.69140625 C-22.1678125 148.63759766 -22.1678125 148.63759766 -21 147.5625 C-20.21625 146.86253906 -19.4325 146.16257813 -18.625 145.44140625 C-16.67265444 143.0303651 -16.67265444 143.0303651 -17.15234375 139.703125 C-17.43207031 138.48109375 -17.71179688 137.2590625 -18 136 C-18.24878906 134.75605469 -18.49757813 133.51210937 -18.75390625 132.23046875 C-18.95294556 131.25339966 -18.95294556 131.25339966 -19.15600586 130.2565918 C-24.3118248 104.01300888 -19.37277696 78.46422595 -4.67993164 56.08764648 C7.4586809 38.49081623 23.84276813 26.69848028 44.25 20.1875 C44.8994458 19.9802832 45.5488916 19.77306641 46.21801758 19.55957031 C70.20736081 12.33382782 98.20033104 17.41363836 119.98046875 29.0703125 C127.86229277 33.50848812 134.5738323 38.60407309 141 45 C139.36117794 49.03402354 136.51348168 51.89127354 133.5625 55 C130.53473186 58.21476565 127.56015979 61.38974077 125 65 C121.75214319 63.55163142 119.41473872 61.71363433 116.75 59.375 C101.00558302 46.58848384 82.05162586 41.69911152 62 43 C47.025878 44.98320692 32.58273423 53.23040302 22.75390625 64.59765625 C10.13979944 81.17006501 4.80671931 100.11001167 7.49609375 120.8203125 C10.67610837 138.31937598 18.47516425 154.6907357 33.1640625 165.28125 C48.57395136 175.81551249 64.99612911 179.87565332 83.515625 176.75 C98.76117001 173.46844771 111.29663956 166.13931688 123 156 C129.3343346 161.09500827 134.62789574 166.92530665 140 173 C134.40360344 185.68148975 116.08666033 193.23601809 104 198 C79.05374358 206.28014662 52.41408275 205.4895137 28.75830078 193.88330078 C20.36255657 189.6656109 13.77500636 184.49688623 7 178 C6.28714844 177.3503125 5.57429687 176.700625 4.83984375 176.03125 C-3.8172061 167.89128791 -8.94217892 157.61586622 -14 147 C-19.29012124 151.40843437 -24.18808428 156.07559794 -29 161 C-28.566875 161.43570313 -28.13375 161.87140625 -27.6875 162.3203125 C-23.14501511 167.17824773 -23.14501511 167.17824773 -22.4375 171.1875 C-23.06421391 174.32106955 -24.04871919 175.52337435 -26 178 C-26.33 179.19625 -26.66 180.3925 -27 181.625 C-28 185 -28 185 -31 187 C-32.32 187 -33.64 187 -35 187 C-35.309375 187.639375 -35.61875 188.27875 -35.9375 188.9375 C-37 191 -37 191 -38 192 C-40.3381615 191.70241581 -42.67182036 191.36760731 -45 191 C-45.66 191 -46.32 191 -47 191 C-47.66 191.66 -48.32 192.32 -49 193 C-53.23963281 193.31404687 -56.36534398 193.32617985 -60 191 C-60.33 191.33 -60.66 191.66 -61 192 C-65.03160191 192.26293056 -66.55892734 192.29404844 -70 190 C-70.33 189.01 -70.66 188.02 -71 187 C-71.99 186.525625 -72.98 186.05125 -74 185.5625 C-77 184 -77 184 -77.875 181.8125 C-77.91625 181.214375 -77.9575 180.61625 -78 180 C-78.73476563 180.10441406 -79.46953125 180.20882812 -80.2265625 180.31640625 C-83 180 -83 180 -85.2734375 177.83984375 C-91 169.93122677 -91 169.93122677 -91 165 C-90.67 164.01 -90.34 163.02 -90 162 C-89.69298186 159.0707277 -89.69298186 159.0707277 -91.19335938 157.46606445 C-91.73798828 156.937146 -92.28261719 156.40822754 -92.84375 155.86328125 C-93.43027344 155.28642578 -94.01679688 154.70957031 -94.62109375 154.11523438 C-95.24113281 153.52033203 -95.86117187 152.92542969 -96.5 152.3125 C-97.12003906 151.70599609 -97.74007812 151.09949219 -98.37890625 150.47460938 C-99.91264707 148.97626257 -101.45548198 147.48723507 -103 146 C-106.48689099 147.09334717 -109.6402216 148.1992198 -112.75 150.125 C-116 152 -116 152 -118 152 C-118 116.03 -118 80.06 -118 43 C-136.81 43 -155.62 43 -175 43 C-175 35.08 -175 27.16 -175 19 C-106.69 18.505 -106.69 18.505 -37 18 C-38.65 16.35 -40.3 14.7 -42 13 C-42 12.34 -42 11.68 -42 11 C-36.34090171 9.43017904 -30.68089819 7.86368166 -25.02001953 6.30029297 C-23.09333281 5.76768384 -21.1668992 5.23415825 -19.24072266 4.69970703 C-16.47624265 3.93282349 -13.71087697 3.16921209 -10.9453125 2.40625 C-10.0806839 2.16563843 -9.2160553 1.92502686 -8.32522583 1.67712402 C-7.52454681 1.45689575 -6.7238678 1.23666748 -5.89892578 1.00976562 C-5.1927713 0.81435181 -4.48661682 0.61893799 -3.75906372 0.41760254 C-2 0 -2 0 0 0 Z M-83.6875 161.25 C-84.33074219 161.85328125 -84.97398437 162.4565625 -85.63671875 163.078125 C-87.26835645 164.91695489 -87.26835645 164.91695489 -86.70703125 167.234375 C-86.47371094 167.81703125 -86.24039063 168.3996875 -86 169 C-82.98601529 169.3214614 -82.98601529 169.3214614 -81.17578125 167.46875 C-80.56089844 166.8190625 -79.94601562 166.169375 -79.3125 165.5 C-78.68988281 164.8503125 -78.06726563 164.200625 -77.42578125 163.53125 C-76.95527344 163.0259375 -76.48476563 162.520625 -76 162 C-76.66 160.68 -77.32 159.36 -78 158 C-80.85543983 158 -81.66370664 159.29599262 -83.6875 161.25 Z M-72 163 C-73.67561054 164.59482218 -75.34025934 166.20116844 -77 167.8125 C-77.928125 168.70582031 -78.85625 169.59914062 -79.8125 170.51953125 C-82.33071315 172.82379728 -82.33071315 172.82379728 -82 176 C-80.25483634 176.88676373 -80.25483634 176.88676373 -78 177 C-75.51997617 175.28113653 -75.51997617 175.28113653 -73.25 172.8125 C-72.45078125 172.01457031 -71.6515625 171.21664062 -70.828125 170.39453125 C-68.5954505 167.97221103 -68.5954505 167.97221103 -69 164 C-69.99 163.67 -70.98 163.34 -72 163 Z M-70.625 174 C-71.57246094 174.8353125 -71.57246094 174.8353125 -72.5390625 175.6875 C-73.02117187 176.120625 -73.50328125 176.55375 -74 177 C-73.67 178.65 -73.34 180.3 -73 182 C-69.64749299 181.42424336 -68.06181371 180.40693737 -65.75 177.9375 C-65.22921875 177.38964844 -64.7084375 176.84179688 -64.171875 176.27734375 C-63.78515625 175.85582031 -63.3984375 175.43429688 -63 175 C-63.66 173.68 -64.32 172.36 -65 171 C-67.77042109 171 -68.58164956 172.1836885 -70.625 174 Z M-61 179 C-63.82684384 180.81725675 -65.65310925 182.03937946 -66.8125 185.25 C-66.9053125 186.11625 -66.9053125 186.11625 -67 187 C-65.02 187.99 -65.02 187.99 -63 189 C-60.41666771 186.75041666 -60.41666771 186.75041666 -58 184 C-58 182.68 -58 181.36 -58 180 C-58.99 179.67 -59.98 179.34 -61 179 Z M-54 182 C-54.66 183.98 -55.32 185.96 -56 188 C-55.34 188.66 -54.68 189.32 -54 190 C-51.89179203 189.6814823 -51.89179203 189.6814823 -50 189 C-50.27034634 186.56282742 -50.27034634 186.56282742 -51 184 C-51.99 183.34 -52.98 182.68 -54 182 Z " fill="#003265" transform="translate(353,4)"/>
<path d="M0 0 C7.92 0 15.84 0 24 0 C25 1 25 1 25.12304783 3.46565342 C25.12212604 4.57088321 25.12120424 5.676113 25.12025452 6.81483459 C25.12162918 8.07833237 25.12300385 9.34183014 25.12442017 10.64361572 C25.12088055 12.05676293 25.11724574 13.4699099 25.11352539 14.88305664 C25.11324353 16.36101784 25.11340124 17.83897919 25.1139679 19.31694031 C25.1142559 23.34155828 25.1083587 27.36614672 25.10139394 31.3907578 C25.09516088 35.59216365 25.09455664 39.7935701 25.09336853 43.99497986 C25.09025507 51.95646257 25.08204149 59.91793162 25.07201904 67.8794083 C25.06085836 76.94092589 25.05534757 86.00244412 25.05032361 95.06396687 C25.03985888 113.709319 25.02225916 132.35465841 25 151 C26.31670685 150.96669083 27.6334137 150.93338165 28.99002075 150.89906311 C41.49117873 150.5929776 53.99156236 150.36918926 66.49563789 150.22281742 C72.92220147 150.14502744 79.34570515 150.03980353 85.77050781 149.8684082 C91.98892406 149.70358578 98.20442754 149.61536553 104.42486191 149.57684135 C106.77956826 149.54944601 109.13414233 149.49595638 111.48758316 149.41404915 C129.32682856 148.81874602 139.8275126 152.89109009 153.67824936 164.14179802 C157.12197475 166.8979671 160.74098272 169.37916503 164.375 171.875 C166.28445997 173.21542616 168.14883722 174.57845862 170 176 C170 176.33 170 176.66 170 177 C113.9 177 57.8 177 0 177 C0 118.59 0 60.18 0 0 Z " fill="#003365" transform="translate(81,23)"/>
</svg>
