<svg xmlns="http://www.w3.org/2000/svg" xmlns:xlink="http://www.w3.org/1999/xlink" width="125" zoomAndPan="magnify" viewBox="0 0 93.75 30.000001" height="40" preserveAspectRatio="xMidYMid meet" version="1.0"><defs><clipPath id="8bbecde66e"><path d="M 1.390625 0 L 92.117188 0 L 92.117188 29.03125 L 1.390625 29.03125 Z M 1.390625 0 " clip-rule="nonzero"/></clipPath></defs><g clip-path="url(#8bbecde66e)"><path fill="#192830" d="M 1.535156 0.917969 L 7.003906 0.917969 L 16.300781 17.71875 L 25.601562 0.917969 L 30.949219 0.917969 L 30.949219 28.523438 L 26.488281 28.523438 L 26.488281 7.367188 L 18.335938 22.015625 L 14.148438 22.015625 L 5.996094 7.367188 L 5.996094 28.523438 L 1.535156 28.523438 Z M 44.925781 11.210938 C 41.726562 11.210938 39.800781 13.613281 39.339844 16.59375 L 50.199219 16.59375 C 49.972656 13.523438 48.203125 11.210938 44.925781 11.210938 Z M 34.917969 18.289062 C 34.917969 12.023438 38.972656 7.464844 45.003906 7.464844 C 50.9375 7.464844 54.480469 11.964844 54.480469 18.625 L 54.480469 19.847656 L 39.339844 19.847656 C 39.878906 23.085938 42.03125 25.269531 45.5 25.269531 C 48.269531 25.269531 50 24.425781 51.640625 22.882812 L 54.007812 25.78125 C 51.777344 27.832031 48.9375 29.015625 45.339844 29.015625 C 38.808594 29.015625 34.917969 24.257812 34.917969 18.289062 Z M 59.890625 11.605469 L 55.785156 11.605469 L 55.785156 7.957031 L 59.890625 7.957031 L 59.890625 1.925781 L 64.195312 1.925781 L 64.195312 7.957031 L 70.433594 7.957031 L 70.433594 11.605469 L 64.195312 11.605469 L 64.195312 20.851562 C 64.195312 24.007812 65.207031 25.128906 67.6875 25.128906 C 68.824219 25.128906 69.472656 25.03125 70.433594 24.875 L 70.433594 28.480469 C 69.238281 28.820312 68.09375 28.972656 66.859375 28.972656 C 62.214844 28.972656 59.890625 26.4375 59.890625 21.363281 Z M 88.554688 15.152344 C 87.691406 12.972656 85.761719 11.367188 82.929688 11.367188 C 79.246094 11.367188 76.890625 13.976562 76.890625 18.230469 C 76.890625 22.375 79.058594 25.109375 82.753906 25.109375 C 85.65625 25.109375 87.730469 23.421875 88.554688 21.324219 Z M 92.859375 28.523438 L 88.636719 28.523438 L 88.636719 25.644531 C 87.453125 27.335938 85.304688 29.015625 81.824219 29.015625 C 76.226562 29.015625 72.484375 24.332031 72.484375 18.230469 C 72.484375 12.066406 76.316406 7.464844 82.0625 7.464844 C 84.902344 7.464844 87.128906 8.597656 88.636719 10.597656 L 88.636719 7.957031 L 92.859375 7.957031 Z M 92.859375 28.523438 " fill-opacity="1" fill-rule="nonzero"/></g></svg>